Movie Info

The macabre and lurid tales of Edgar Allan Poe are vividly brought to life - and death - in this stylish, gothic thriller starring John Cusack as the infamous author. When a madman begins committing horrific murders inspired by Poe's darkest works, a young Baltimore detective (Luke Evans) joins forces with Poe in a quest to get inside the killer's mind in order to stop him from making every one of Poe's brutal stories a blood chilling reality. A deadly game of cat and mouse ensues, which ... More

R, 1 hr. 50 min.

Mystery & Suspense

Directed By: James McTeigue

Written By: Ben Livingston, Hannah Shakespeare

In Theaters: Apr 27, 2012 Wide

US Box Office:$16.0M

Relativity Media
[/color]

Screenshots 
http://i1271.photobucket.com/albums/jj629/sameer_ecs/TheRaven720pHDECSmp4_thumbs_20120717_052752.jpg

General
Complete name                  : The Raven 720pHD {ECS}.mp4
Format                         : MPEG-4
Format profile                 : Base Media
Codec ID                       : isom
File size                      : 600 MiB
Duration                       : 1h 50mn
Overall bit rate               : 756 Kbps
Encoded date                   : UTC 2012-07-16 14:38:04
Tagged date                    : UTC 2012-07-16 14:38:04

Video
ID                             : 1
Format                         : AVC
Format/Info                    : Advanced Video Codec
Format profile                 : High@L3.1
Format settings, CABAC         : Yes
Format settings, ReFrames      : 5 frames
Codec ID                       : avc1
Codec ID/Info                  : Advanced Video Coding
Duration                       : 1h 50mn
Bit rate                       : 370 Kbps
Maximum bit rate               : 3 619 Kbps
Width                          : 1 280 pixels
Height                         : 544 pixels
Display aspect ratio           : 2.35:1
Frame rate mode                : Constant
Frame rate                     : 23.976 fps
Color space                    : YUV
Chroma subsampling             : 4:2:0
Bit depth                      : 8 bits
Scan type                      : Progressive
Bits/(Pixel*Frame)             : 0.022
Stream size                    : 293 MiB (49%)
Writing library                : x264 core 125 r2200 999b753
Encoded date                   : UTC 2012-07-16 14:38:04
Tagged date                    : UTC 2012-07-16 14:39:05

Audio
ID                             : 2
Format                         : AC-3
Format/Info                    : Audio Coding 3
Mode extension                 : CM (complete main)
Format settings, Endianness    : Big
Codec ID                       : ac-3
Duration                       : 1h 50mn
Bit rate mode                  : Constant
Bit rate                       : 384 Kbps
Channel(s)                     : 6 channels
Channel positions              : Front: L C R, Side: L R, LFE
Sampling rate                  : 48.0 KHz
Bit depth                      : 16 bits
Compression mode               : Lossy
Stream size                    : 305 MiB (51%)
Language                       : English
Encoded date                   : UTC 2012-07-16 14:38:48
Tagged date                    : UTC 2012-07-16 14:39:05